<svg width="256" height="98" viewBox="0 0 256 98" fill="none" xmlns="http://www.w3.org/2000/svg">
<rect x="0.5" y="0.5" width="96.7005" height="96.7005" rx="9.5" stroke="white"/>
<g clip-path="url(#clip0_340_45)">
<path d="M86.7114 46.6305C86.7114 48.2953 86.7114 50.5151 86.1637 52.1799H60.4223C60.97 54.3996 62.0654 56.0644 64.2561 57.7292C65.8992 58.8391 68.09 59.394 70.8284 59.394C74.6622 59.394 77.9484 58.2842 81.2345 55.5095L85.616 62.1687C81.2345 66.0533 76.3053 67.7181 70.8284 67.7181C64.8038 67.7181 60.4223 66.0533 56.5885 62.1687C52.7547 58.2842 51.1116 53.8447 51.1116 48.2953C51.1116 42.746 52.7547 38.3065 56.5885 34.4219C60.4223 30.5374 64.8038 28.8726 70.2807 28.8726C75.2099 28.8726 79.5914 30.5374 82.8775 33.867C85.0683 37.1966 86.7114 41.6361 86.7114 46.6305ZM69.1853 37.1966C66.9946 37.1966 65.3515 37.7515 63.7085 39.4163C62.0654 40.5262 60.97 42.746 60.4223 44.9657H76.853C76.853 42.746 75.7576 41.0812 74.6622 39.4163C73.0192 37.7515 71.3761 37.1966 69.1853 37.1966Z" fill="white"/>
<path d="M41.801 42.1911L18.7981 67.1632C17.7027 68.2731 16.6073 68.2731 15.5119 67.1632L12.2258 63.8336C11.1304 62.7237 11.1304 61.6139 12.2258 60.504L35.2287 35.5319C36.3241 34.422 37.4195 34.422 38.5148 35.5319L41.801 38.8615C42.8963 39.4164 42.8963 41.0812 41.801 42.1911Z" fill="white"/>
<path d="M48.9209 31.6472V65.4983C48.9209 66.6082 47.8256 67.7181 46.7302 67.7181H41.801C40.7056 67.7181 39.6102 66.6082 39.6102 65.4983V31.6472C39.6102 30.5374 40.7056 29.4275 41.801 29.4275H46.1825C47.8256 29.4275 48.9209 30.5374 48.9209 31.6472Z" fill="white"/>
<path d="M46.1825 38.3065H13.8689C12.7735 38.3065 11.6781 37.7515 11.6781 36.0867V31.6472C11.6781 30.5374 12.7735 29.4275 13.8689 29.4275H46.1825C47.2778 29.4275 48.3732 30.5374 48.3732 31.6472V36.0867C48.9209 37.7515 47.8255 38.3065 46.1825 38.3065Z" fill="white"/>
</g>
<path d="M138.559 71.814C135.372 71.814 132.434 71.2515 129.684 70.0952C126.934 68.939 124.559 67.3452 122.59 65.314C120.622 63.314 119.09 60.8765 117.965 58.0327C116.84 55.2202 116.278 52.1577 116.278 48.9077C116.278 45.6577 116.84 42.6265 117.965 39.7827C119.09 36.9702 120.622 34.5327 122.59 32.5015C124.559 30.5015 126.934 28.9077 129.684 27.7515C132.434 26.5952 135.372 26.0015 138.559 26.0015C142.747 26.0015 146.528 27.0015 149.903 28.9702C153.278 30.939 155.934 33.6577 157.872 37.1577C159.778 40.6577 160.747 44.5952 160.747 48.9077C160.747 53.2515 159.778 57.1577 157.872 60.6577C155.934 64.1577 153.278 66.9077 149.903 68.8765C146.528 70.8452 142.747 71.814 138.559 71.814ZM138.559 65.939C142.997 65.939 146.653 64.3452 149.59 61.0952C152.497 57.8765 153.965 53.814 153.965 48.9077C153.965 44.0327 152.497 39.9702 149.59 36.7202C146.653 33.5015 142.997 31.8765 138.559 31.8765C135.622 31.8765 132.965 32.6265 130.59 34.0952C128.215 35.564 126.372 37.5952 125.059 40.189C123.715 42.814 123.059 45.7202 123.059 48.9077C123.059 52.1265 123.715 55.0327 125.059 57.6265C126.372 60.2515 128.215 62.2827 130.59 63.7515C132.965 65.2202 135.622 65.939 138.559 65.939ZM180.185 71.814C177.685 71.814 175.435 71.3765 173.404 70.4702C171.342 69.5952 169.654 68.3765 168.342 66.8452C166.998 65.314 165.967 63.5327 165.248 61.5327C164.529 59.5327 164.185 57.439 164.185 55.189C164.185 52.939 164.529 50.814 165.248 48.814C165.967 46.814 166.998 45.064 168.342 43.5327C169.654 42.0015 171.342 40.7827 173.404 39.8765C175.435 39.0015 177.685 38.5327 180.185 38.5327C184.06 38.5327 187.404 39.6265 190.248 41.7515C193.06 43.9077 194.717 46.7515 195.154 50.314H188.935C188.654 48.5015 187.685 47.0015 186.06 45.814C184.404 44.6265 182.498 44.0015 180.31 44.0015C177.185 44.0015 174.81 45.064 173.123 47.1577C171.435 49.2515 170.623 51.939 170.623 55.189C170.623 58.439 171.467 61.1265 173.154 63.2202C174.842 65.3452 177.217 66.3765 180.31 66.3765C182.498 66.3765 184.342 65.8452 185.904 64.7827C187.435 63.7202 188.467 62.2827 188.998 60.439H195.154C194.623 63.8765 192.998 66.6265 190.31 68.689C187.623 70.7827 184.248 71.814 180.185 71.814ZM203.03 28.939H209.218V39.064H218.78V44.439H209.218V60.564C209.218 62.314 209.655 63.6265 210.53 64.564C211.405 65.5015 212.624 65.939 214.218 65.939H218.78V71.314H213.718C210.405 71.314 207.812 70.3765 205.905 68.5015C203.968 66.6265 203.03 64.0327 203.03 60.7515V44.439H196.437V39.064H203.03V28.939ZM236.75 71.814C231.907 71.814 227.938 70.2515 224.813 67.1265C221.688 64.0015 220.125 60.0327 220.125 55.189C220.125 50.3765 221.688 46.3765 224.813 43.2515C227.938 40.1265 231.907 38.5327 236.75 38.5327C241.563 38.5327 245.5 40.1265 248.625 43.2515C251.75 46.3765 253.313 50.3765 253.313 55.189C253.313 60.0327 251.75 64.0015 248.657 67.1265C245.532 70.2515 241.563 71.814 236.75 71.814ZM236.75 66.3765C239.782 66.3765 242.25 65.3452 244.157 63.2827C246.032 61.2202 247 58.5015 247 55.189C247 51.8765 246.032 49.189 244.157 47.1265C242.25 45.064 239.782 44.0015 236.75 44.0015C233.688 44.0015 231.188 45.064 229.282 47.1265C227.375 49.189 226.438 51.8765 226.438 55.189C226.438 58.5015 227.375 61.2202 229.282 63.2827C231.188 65.3452 233.688 66.3765 236.75 66.3765Z" fill="white"/>
<defs>
<clipPath id="clip0_340_45">
<rect width="76.6763" height="43.285" fill="white" transform="translate(11.1304 27.2078)"/>
</clipPath>
</defs>
</svg>
