<svg width="19" height="19" viewBox="0 0 19 19" fill="none" xmlns="http://www.w3.org/2000/svg">
<path d="M15.0417 2.37499H11.0833V3.95832H15.0417V14.25L11.0833 9.49999V16.625H15.0417C15.4616 16.625 15.8643 16.4582 16.1613 16.1612C16.4582 15.8643 16.625 15.4616 16.625 15.0417V3.95832C16.625 3.07957 15.9125 2.37499 15.0417 2.37499ZM7.91667 14.25H3.95833L7.91667 9.49999M7.91667 2.37499H3.95833C3.07958 2.37499 2.375 3.07957 2.375 3.95832V15.0417C2.375 15.4616 2.54181 15.8643 2.83875 16.1612C3.13568 16.4582 3.53841 16.625 3.95833 16.625H7.91667V18.2083H9.5V0.791656H7.91667V2.37499Z" fill="black"/>
</svg>
