<svg width="10" height="10" viewBox="0 0 10 10" fill="none" xmlns="http://www.w3.org/2000/svg">
<g clip-path="url(#clip0_195_4180)">
<path d="M6.75033 1.45831C6.33366 1.04165 5.79199 0.833313 5.29199 0.833313C4.79199 0.833313 4.20866 1.04165 3.83366 1.45831L1.41699 3.79165C0.583659 4.62498 0.583659 5.91665 1.41699 6.74998C2.25033 7.58331 3.54199 7.58331 4.37533 6.74998L6.75033 4.37498C7.54199 3.58331 7.54199 2.24998 6.75033 1.45831ZM6.16699 3.79165L5.00033 4.95831L3.50032 3.49998L1.66699 5.33331C1.66699 4.99998 1.75033 4.62498 2.04199 4.37498L4.41699 1.99998C4.62533 1.79165 4.95866 1.66665 5.25033 1.66665C5.54199 1.66665 5.87532 1.79165 6.12532 1.99998C6.62532 2.54165 6.62532 3.29165 6.16699 3.79165ZM8.16699 2.95831C8.16699 3.29165 8.08366 3.58331 8.00033 3.91665C8.41699 4.41665 8.41699 5.16665 7.95866 5.62498L6.79199 6.79165L6.16699 6.16665L5.00033 7.33331C4.45866 7.87498 3.70866 8.16665 3.00033 8.16665C3.08366 8.29165 3.16699 8.41665 3.29199 8.54165C4.12533 9.37498 5.41699 9.37498 6.25033 8.54165L8.62533 6.16665C9.45866 5.33331 9.45866 4.04165 8.62533 3.20831C8.41699 3.12498 8.29199 3.04165 8.16699 2.95831Z" fill="#007BFF"/>
</g>
<defs>
<clipPath id="clip0_195_4180">
<rect width="10" height="10" fill="white"/>
</clipPath>
</defs>
</svg>
